<?xml version="1.0" standalone="no"?>
<!DOCTYPE svg PUBLIC "-//W3C//DTD SVG 20010904//EN"
 "http://www.w3.org/TR/2001/REC-SVG-20010904/DTD/svg10.dtd">
<svg version="1.0" xmlns="http://www.w3.org/2000/svg"
 width="16.000000pt" height="16.000000pt" viewBox="0 0 16.000000 16.000000"
 preserveAspectRatio="xMidYMid meet">

<g transform="translate(0.000000,16.000000) scale(0.100000,-0.100000)"
fill="#000000" stroke="none">
<path d="M24 109 c-4 -7 1 -18 11 -25 15 -11 16 -16 5 -29 -7 -8 -8 -15 -2
-15 17 0 34 28 30 52 -3 25 -32 36 -44 17z"/>
<path d="M90 105 c0 -7 8 -18 17 -24 14 -8 15 -12 4 -25 -9 -11 -10 -16 -2
-16 16 0 35 45 28 64 -8 20 -47 21 -47 1z"/>
</g>
</svg>
