<?xml version="1.0" standalone="no"?>
<!DOCTYPE svg PUBLIC "-//W3C//DTD SVG 20010904//EN"
 "http://www.w3.org/TR/2001/REC-SVG-20010904/DTD/svg10.dtd">
<svg version="1.0" xmlns="http://www.w3.org/2000/svg"
 width="16.000000pt" height="16.000000pt" viewBox="0 0 16.000000 16.000000"
 preserveAspectRatio="xMidYMid meet">

<g transform="translate(0.000000,16.000000) scale(0.100000,-0.100000)"
fill="#000000" stroke="none">
<path d="M28 96 c-14 -31 -4 -56 22 -56 24 0 27 25 3 39 -14 8 -15 12 -4 25 9
11 10 16 2 16 -6 0 -16 -11 -23 -24z"/>
<path d="M102 108 c-17 -17 -15 -58 4 -65 8 -3 21 0 27 6 9 10 8 16 -7 26 -16
12 -17 17 -6 30 15 18 0 21 -18 3z"/>
</g>
</svg>
