<svg width="22" height="23" viewBox="0 0 22 23" fill="none" xmlns="http://www.w3.org/2000/svg">
<path fill-rule="evenodd" clip-rule="evenodd" d="M9.11047 4.53252C9.04886 4.16698 9.00245 3.8056 8.97247 3.44417C8.92729 2.90202 8.95522 2.35574 8.9392 1.81359C8.93222 1.58359 8.9047 0.983958 8.91579 0.897708C9.01641 0.1461 9.62303 0.0310864 9.80046 0.0105507C9.8863 -0.00177074 10.7677 -0.100298 10.9579 0.877202C11.1911 2.07238 11.2659 3.27576 11.1833 4.45451C11.376 5.45665 11.7054 6.45466 12.1403 7.35824C13.8711 10.952 17.1691 11.3011 20.7423 11.2682C21.2918 11.26 21.7482 11.6913 21.7769 12.2375C21.8057 12.7879 21.3966 13.2643 20.8495 13.3136C18.8522 13.5066 15.3085 15.1084 14.0834 16.7759C13.8271 17.125 13.678 17.967 13.4809 18.7926C13.2057 19.9385 12.8784 21.072 12.5116 21.5484C12.4566 21.6224 11.7875 22.3781 11.5879 22.489C11.1082 22.7518 10.7242 22.5999 10.5061 22.4602C10.288 22.3206 10.0411 22.0454 9.94257 21.5895C9.83948 21.1131 9.92655 20.1355 9.91054 19.9261C9.85221 19.1663 9.70026 17.6754 9.39017 16.394C9.22301 15.704 9.04475 15.0673 8.74986 14.7511C7.65818 13.5806 5.91265 13.7531 4.4427 13.9461C4.2739 13.9666 4.1051 13.9913 3.9367 14.0118C3.33829 14.1884 2.7029 14.3198 2.03138 14.3979C1.01733 14.517 0.850592 13.5847 0.841556 13.5231C0.822664 13.3875 0.752424 12.6893 1.51676 12.41C1.60014 12.3813 2.21539 12.2457 2.45238 12.1924C2.78259 12.1184 3.11649 12.0609 3.45164 12.0076C6.91355 10.9315 8.79381 7.90859 9.11047 4.53252ZM10.2987 8.26595C11.6056 10.9684 13.5889 12.2745 15.9398 12.8659H15.9394C14.4715 13.634 13.1363 14.5951 12.4286 15.5602C12.16 15.9258 11.9136 16.6609 11.6914 17.4865C11.5711 16.7184 11.4084 15.9011 11.1936 15.2029C10.9492 14.4061 10.6202 13.7449 10.2531 13.3506C9.54417 12.5908 8.65456 12.1677 7.69801 11.9583C8.84308 10.9438 9.71134 9.67881 10.2987 8.26595Z" fill="#994AFF"/>
</svg>
