<svg width="165" height="23" viewBox="0 0 165 23" fill="none" xmlns="http://www.w3.org/2000/svg">
<path fill-rule="evenodd" clip-rule="evenodd" d="M43.9781 13.5446C36.8893 15.6231 28.7049 17.6916 20.8315 18.2081C14.1019 18.6489 7.60177 17.9642 2.28131 15.051C1.53132 14.6408 0.59212 14.9228 0.186516 15.6819C-0.219706 16.4403 0.0597618 17.3902 0.809758 17.801C6.61373 20.9781 13.6907 21.8091 21.0312 21.3277C29.0462 20.8024 37.3784 18.7202 44.6094 16.6117C45.4484 18.3306 47.1859 19.9332 50.2464 21.1157C54.9474 22.9321 61.3659 22.9096 68.1276 21.886C77.9344 20.4022 88.4839 16.8637 95.2666 14.3494C95.5448 14.2468 95.9591 14.0836 96.4661 13.8685C96.6207 14.2137 96.7938 14.5539 96.9854 14.8878C98.6487 17.7979 101.592 20.1508 104.591 20.9912C123.609 26.32 145.806 19.9351 163.879 14.7389C164.695 14.5032 165.171 13.6378 164.943 12.808C164.708 11.9783 163.854 11.4962 163.032 11.7319C145.466 16.783 123.9 23.156 105.413 17.9779C103.138 17.3401 100.924 15.5318 99.6627 13.3233C99.5205 13.0769 99.3968 12.8249 99.2794 12.5692C101.771 11.3205 104.702 9.57965 106.278 7.71627C107.898 5.806 108.3 3.76692 106.891 1.84102C105.679 0.194622 103.842 0.054553 101.932 0.908079C99.8729 1.82226 97.7521 3.95948 97.0658 4.96245C95.7798 6.83583 95.3717 8.86806 95.6067 10.8496C95.0007 11.1085 94.5086 11.3011 94.205 11.4136C87.5706 13.8723 77.2593 17.3427 67.6701 18.794C61.5001 19.7282 55.6392 19.8526 51.3495 18.1955C49.5199 17.4883 48.3111 16.663 47.6551 15.705C48.9498 15.3136 50.1982 14.9284 51.3909 14.5607C53.7497 13.8335 58.6609 12.6298 62.1697 10.4844C64.9601 8.77865 66.8521 6.45818 66.742 3.54932C66.6858 2.05487 65.8306 1.05751 64.4697 0.498493C62.4362 -0.336274 58.9193 0.0676573 57.6097 0.349039C53.6378 1.20069 48.3365 4.72611 45.7137 8.6986C44.6669 10.2837 44.0443 11.942 43.9781 13.5446ZM47.2409 12.5679C48.3631 12.2265 49.4476 11.8913 50.4894 11.5699C52.6912 10.8909 57.2938 9.81223 60.5701 7.80879C62.3051 6.74829 63.7216 5.47771 63.653 3.66874C63.6474 3.52804 63.5095 3.48804 63.3877 3.43051C63.1991 3.34234 62.9834 3.28167 62.7534 3.23415C61.1971 2.91275 59.1066 3.22351 58.2509 3.40734C54.9183 4.12205 50.4851 7.10159 48.2845 10.435C47.8196 11.1391 47.4492 11.8563 47.2409 12.5679ZM98.6611 9.41018C100.114 8.6542 101.635 7.74001 102.835 6.74517C103.471 6.2168 104.009 5.67344 104.349 5.10942C104.634 4.64295 104.745 4.1652 104.405 3.70373C104.269 3.51677 104.065 3.51304 103.855 3.54806C103.632 3.58558 103.403 3.66559 103.175 3.76877C101.666 4.44033 100.108 6.0092 99.6071 6.74517C99.0197 7.59869 98.7291 8.50163 98.6611 9.41018Z" fill="#994AFF"/>
</svg>
